<?xml version="1.0" standalone="no"?>
<svg xmlns:xlink="http://www.w3.org/1999/xlink" id="wave" style="transform:rotate(0deg); transition: 0.3s" viewBox="0 0 1440 100" version="1.1" xmlns="http://www.w3.org/2000/svg"><defs><linearGradient id="sw-gradient-0" x1="0" x2="0" y1="1" y2="0"><stop stop-color="rgba(255, 249, 234, 1)" offset="0%"/><stop stop-color="rgba(255, 249, 234, 1)" offset="100%"/></linearGradient></defs><path style="transform:translate(0, 0px); opacity:1" fill="url(#sw-gradient-0)" d="M0,50L30,48.3C60,47,120,43,180,45C240,47,300,53,360,50C420,47,480,33,540,23.3C600,13,660,7,720,15C780,23,840,47,900,60C960,73,1020,77,1080,80C1140,83,1200,87,1260,73.3C1320,60,1380,30,1440,30C1500,30,1560,60,1620,68.3C1680,77,1740,63,1800,58.3C1860,53,1920,57,1980,48.3C2040,40,2100,20,2160,25C2220,30,2280,60,2340,66.7C2400,73,2460,57,2520,46.7C2580,37,2640,33,2700,38.3C2760,43,2820,57,2880,58.3C2940,60,3000,50,3060,38.3C3120,27,3180,13,3240,8.3C3300,3,3360,7,3420,21.7C3480,37,3540,63,3600,75C3660,87,3720,83,3780,83.3C3840,83,3900,87,3960,78.3C4020,70,4080,50,4140,46.7C4200,43,4260,57,4290,63.3L4320,70L4320,100L4290,100C4260,100,4200,100,4140,100C4080,100,4020,100,3960,100C3900,100,3840,100,3780,100C3720,100,3660,100,3600,100C3540,100,3480,100,3420,100C3360,100,3300,100,3240,100C3180,100,3120,100,3060,100C3000,100,2940,100,2880,100C2820,100,2760,100,2700,100C2640,100,2580,100,2520,100C2460,100,2400,100,2340,100C2280,100,2220,100,2160,100C2100,100,2040,100,1980,100C1920,100,1860,100,1800,100C1740,100,1680,100,1620,100C1560,100,1500,100,1440,100C1380,100,1320,100,1260,100C1200,100,1140,100,1080,100C1020,100,960,100,900,100C840,100,780,100,720,100C660,100,600,100,540,100C480,100,420,100,360,100C300,100,240,100,180,100C120,100,60,100,30,100L0,100Z"/></svg>