<?xml version="1.0" standalone="no"?>
<svg xmlns:xlink="http://www.w3.org/1999/xlink" id="wave" style="transform:rotate(180deg); transition: 0.3s" viewBox="0 0 1440 100" version="1.1" xmlns="http://www.w3.org/2000/svg"><defs><linearGradient id="sw-gradient-0" x1="0" x2="0" y1="1" y2="0"><stop stop-color="rgba(255, 249, 234, 1)" offset="0%"/><stop stop-color="rgba(255, 249, 234, 1)" offset="100%"/></linearGradient></defs><path style="transform:translate(0, 0px); opacity:1" fill="url(#sw-gradient-0)" d="M0,0L30,3.3C60,7,120,13,180,16.7C240,20,300,20,360,18.3C420,17,480,13,540,23.3C600,33,660,57,720,58.3C780,60,840,40,900,26.7C960,13,1020,7,1080,3.3C1140,0,1200,0,1260,15C1320,30,1380,60,1440,60C1500,60,1560,30,1620,30C1680,30,1740,60,1800,73.3C1860,87,1920,83,1980,71.7C2040,60,2100,40,2160,36.7C2220,33,2280,47,2340,58.3C2400,70,2460,80,2520,83.3C2580,87,2640,83,2700,76.7C2760,70,2820,60,2880,48.3C2940,37,3000,23,3060,23.3C3120,23,3180,37,3240,50C3300,63,3360,77,3420,73.3C3480,70,3540,50,3600,45C3660,40,3720,50,3780,58.3C3840,67,3900,73,3960,68.3C4020,63,4080,47,4140,35C4200,23,4260,17,4290,13.3L4320,10L4320,100L4290,100C4260,100,4200,100,4140,100C4080,100,4020,100,3960,100C3900,100,3840,100,3780,100C3720,100,3660,100,3600,100C3540,100,3480,100,3420,100C3360,100,3300,100,3240,100C3180,100,3120,100,3060,100C3000,100,2940,100,2880,100C2820,100,2760,100,2700,100C2640,100,2580,100,2520,100C2460,100,2400,100,2340,100C2280,100,2220,100,2160,100C2100,100,2040,100,1980,100C1920,100,1860,100,1800,100C1740,100,1680,100,1620,100C1560,100,1500,100,1440,100C1380,100,1320,100,1260,100C1200,100,1140,100,1080,100C1020,100,960,100,900,100C840,100,780,100,720,100C660,100,600,100,540,100C480,100,420,100,360,100C300,100,240,100,180,100C120,100,60,100,30,100L0,100Z"/></svg>